ffmpeg version 3.4.8-0ubuntu0.2 Copyright (c) 2000-2020 the FFmpeg developers
  built with gcc 7 (Ubuntu 7.5.0-3ubuntu1~18.04)
  configuration: --prefix=/usr --extra-version=0ubuntu0.2 --toolchain=hardened --libdir=/usr/lib/x86_64-linux-gnu --incdir=/usr/include/x86_64-linux-gnu --enable-gpl --disable-stripping --enable-avresample --enable-avisynth --enable-gnutls --enable-ladspa --enable-libass --enable-libbluray --enable-libbs2b --enable-libcaca --enable-libcdio --enable-libflite --enable-libfontconfig --enable-libfreetype --enable-libfribidi --enable-libgme --enable-libgsm --enable-libmp3lame --enable-libmysofa --enable-libopenjpeg --enable-libopenmpt --enable-libopus --enable-libpulse --enable-librubberband --enable-librsvg --enable-libshine --enable-libsnappy --enable-libsoxr --enable-libspeex --enable-libssh --enable-libtheora --enable-libtwolame --enable-libvorbis --enable-libvpx --enable-libwavpack --enable-libwebp --enable-libx265 --enable-libxml2 --enable-libxvid --enable-libzmq --enable-libzvbi --enable-omx --enable-openal --enable-opengl --enable-sdl2 --enable-libdc1394 --enable-libdrm --enable-libiec61883 --enable-chromaprint --enable-frei0r --enable-libopencv --enable-libx264 --enable-shared
  libavutil      55. 78.100 / 55. 78.100
  libavcodec     57.107.100 / 57.107.100
  libavformat    57. 83.100 / 57. 83.100
  libavdevice    57. 10.100 / 57. 10.100
  libavfilter     6.107.100 /  6.107.100
  libavresample   3.  7.  0 /  3.  7.  0
  libswscale      4.  8.100 /  4.  8.100
  libswresample   2.  9.100 /  2.  9.100
  libpostproc    54.  7.100 / 54.  7.100
[rawvideo @ 0x5612fe740a20] Estimating duration from bitrate, this may be inaccurate
Input #0, rawvideo, from '../../SVC-Encoder-20220109T061506Z-001/SVC-Encoder/Dataset/RollerCoaster/ERP_8x8/tile_yuv/Tile_16_480x240.yuv':
  Duration: 00:00:10.00, start: 0.000000, bitrate: 41472 kb/s
    Stream #0:0: Video: rawvideo (I420 / 0x30323449), yuv420p, 480x240, 41472 kb/s, 30 tbr, 30 tbn, 30 tbc
Stream mapping:
  Stream #0:0 -> #0:0 (rawvideo (native) -> h264 (libx264))
Press [q] to stop, [?] for help
[libx264 @ 0x5612fe74dc60] using cpu capabilities: MMX2 SSE2Fast LZCNT SSSE3 SSE4.2 AVX
[libx264 @ 0x5612fe74dc60] profile High, level 2.1
Output #0, rawvideo, to 'RollerCoaster_Tile_16_480x240_x264_QP_24.h264':
  Metadata:
    encoder         : Lavf57.83.100
    Stream #0:0: Video: h264 (libx264), yuv420p, 480x240, q=-1--1, 30 fps, 30 tbn, 30 tbc
    Metadata:
      encoder         : Lavc57.107.100 libx264
    Side data:
      cpb: bitrate max/min/avg: 0/0/0 buffer size: 0 vbv_delay: -1
frame=  191 fps=0.0 q=30.0 PSNR=Y:nan U:nan V:nan *:nan size=      69kB time=00:00:04.93 bitrate= 114.5kbits/s speed=9.81x    frame=  300 fps=0.0 q=30.0 LPSNR=Y:inf U:inf V:inf *:inf size=     124kB time=00:00:09.93 bitrate= 102.5kbits/s speed=11.8x    
video:124kB audio:0kB subtitle:0kB other streams:0kB global headers:0kB muxing overhead: 0.000000%
[libx264 @ 0x5612fe74dc60] frame I:2     Avg QP:22.14  size:  8004  PSNR Mean Y:47.87 U:51.27 V:53.70 Avg:48.91 Global:48.89
[libx264 @ 0x5612fe74dc60] frame P:76    Avg QP:23.82  size:  1028  PSNR Mean Y:45.23 U:50.58 V:52.47 Avg:46.49 Global:46.47
[libx264 @ 0x5612fe74dc60] frame B:222   Avg QP:29.58  size:   149  PSNR Mean Y:44.91 U:50.39 V:52.34 Avg:46.19 Global:46.17
[libx264 @ 0x5612fe74dc60] consecutive B-frames:  1.0%  0.7%  1.0% 97.3%
[libx264 @ 0x5612fe74dc60] mb I  I16..4: 34.1% 54.3% 11.6%
[libx264 @ 0x5612fe74dc60] mb P  I16..4:  0.8%  0.2%  0.0%  P16..4: 35.6%  9.2%  2.7%  0.0%  0.0%    skip:51.5%
[libx264 @ 0x5612fe74dc60] mb B  I16..4:  0.0%  0.0%  0.0%  B16..8: 26.8%  0.8%  0.0%  direct: 0.0%  skip:72.3%  L0:37.9% L1:60.8% BI: 1.3%
[libx264 @ 0x5612fe74dc60] 8x8 transform intra:45.2% inter:73.8%
[libx264 @ 0x5612fe74dc60] coded y,uvDC,uvAC intra: 38.1% 48.9% 13.0% inter: 3.6% 3.4% 0.0%
[libx264 @ 0x5612fe74dc60] i16 v,h,dc,p: 16% 44% 14% 26%
[libx264 @ 0x5612fe74dc60] i8 v,h,dc,ddl,ddr,vr,hd,vl,hu:  7% 30% 23%  3%  6%  3% 17%  3%  9%
[libx264 @ 0x5612fe74dc60] i4 v,h,dc,ddl,ddr,vr,hd,vl,hu:  4% 31% 22%  2%  8%  3% 19%  2% 10%
[libx264 @ 0x5612fe74dc60] i8c dc,h,v,p: 50% 34%  9%  7%
[libx264 @ 0x5612fe74dc60] Weighted P-Frames: Y:0.0% UV:0.0%
[libx264 @ 0x5612fe74dc60] ref P L0: 61.8% 15.1% 18.0%  5.1%
[libx264 @ 0x5612fe74dc60] ref B L0: 80.7% 16.8%  2.5%
[libx264 @ 0x5612fe74dc60] ref B L1: 83.9% 16.1%
[libx264 @ 0x5612fe74dc60] PSNR Mean Y:45.010 U:50.446 V:52.384 Avg:46.286 Global:46.258 kb/s:101.84
